<?xml version="1.0" standalone="no"?>
<!DOCTYPE svg PUBLIC "-//W3C//DTD SVG 20010904//EN"
 "http://www.w3.org/TR/2001/REC-SVG-20010904/DTD/svg10.dtd">
<svg version="1.0" xmlns="http://www.w3.org/2000/svg"
 width="700.000000pt" height="700.000000pt" viewBox="0 0 700.000000 700.000000"
 preserveAspectRatio="xMidYMid meet">
<metadata>
Created by potrace 1.14, written by Peter Selinger 2001-2017
</metadata>
<g transform="translate(0.000000,700.000000) scale(0.100000,-0.100000)"
fill="#000000" stroke="none">
<path d="M2655 6245 c-143 -23 -215 -43 -326 -89 -242 -100 -397 -217 -588
-441 -80 -94 -202 -333 -242 -473 -17 -60 -24 -92 -44 -212 -4 -19 -8 -75 -10
-125 -2 -49 -4 -93 -5 -97 0 -4 -171 -8 -381 -8 -419 0 -428 -1 -463 -61 -39
-65 -1 -306 72 -459 118 -246 343 -431 612 -501 67 -17 115 -22 225 -23 130
-1 267 8 307 20 14 4 15 0 8 -30 -14 -64 -43 -100 -125 -153 -189 -123 -332
-247 -436 -378 -171 -217 -280 -485 -319 -780 -9 -72 -6 -318 5 -390 10 -61
52 -223 75 -289 68 -190 225 -433 367 -567 277 -261 586 -403 963 -444 60 -6
1670 -6 1760 0 108 8 196 16 220 20 14 2 43 6 65 10 821 120 1451 546 1779
1202 96 192 182 466 212 678 3 22 7 51 9 65 3 14 7 52 10 85 3 33 7 85 10 115
8 96 7 234 -3 260 -13 33 -42 59 -78 69 -30 8 -80 4 -289 -25 -113 -16 -316 2
-390 35 -11 5 -35 15 -53 22 -33 12 -33 12 -27 64 3 29 8 62 10 74 16 85 22
312 11 416 -20 179 -28 206 -67 239 -47 40 -72 39 -229 -14 -237 -80 -680
-209 -778 -226 -13 -3 -54 -12 -91 -21 -51 -12 -126 -16 -334 -17 -147 -1
-266 1 -265 5 2 3 36 41 75 84 171 184 290 416 344 671 20 90 24 139 24 279 0
94 -3 188 -7 210 -26 143 -42 202 -86 315 -176 446 -588 791 -1047 875 -22 4
-51 10 -65 12 -61 12 -340 10 -415 -2z"/>
</g>
</svg>
